<svg width="16" height="15" viewBox="0 0 16 15" fill="none" xmlns="http://www.w3.org/2000/svg">
<g clip-path="url(#clip0_1_69)">
<path fill-rule="evenodd" clip-rule="evenodd" d="M3.80369 12.8952C3.79962 12.8952 3.79678 12.8911 3.79813 12.8873L7.62767 2.06644C7.62852 2.06409 7.63074 2.06252 7.63323 2.06252H11.7214C11.7239 2.06252 11.7261 2.0641 11.7269 2.06647L15.4997 12.8873C15.501 12.8912 15.4982 12.8952 15.4941 12.8952H3.91877H3.80369ZM0.505959 12.9375C0.501846 12.9375 0.498998 12.9334 0.500441 12.9295L3.35219 5.31611C3.35305 5.31379 3.35525 5.31227 3.35771 5.31227H5.83555C5.83965 5.31227 5.84249 5.31634 5.84109 5.32018L3.08353 12.9336C3.08268 12.9359 3.08047 12.9375 3.07799 12.9375H0.505959Z" fill="#455160"/>
</g>
<defs>
<clipPath id="clip0_1_69">
<rect width="15" height="15" fill="white" transform="translate(0.5)"/>
</clipPath>
</defs>
</svg>
